<?xml version="1.0" encoding="utf-8"?>
<!-- Generator: Adobe Illustrator 15.1.0, SVG Export Plug-In . SVG Version: 6.00 Build 0)  -->
<!DOCTYPE svg PUBLIC "-//W3C//DTD SVG 1.1//EN" "http://www.w3.org/Graphics/SVG/1.1/DTD/svg11.dtd">
<svg version="1.1" id="Layer_1" xmlns="http://www.w3.org/2000/svg" xmlns:xlink="http://www.w3.org/1999/xlink" x="0px" y="0px"
	 width="19.941px" height="22.014px" viewBox="0 0 19.941 22.014" enable-background="new 0 0 19.941 22.014" xml:space="preserve">
<g>
	<defs>
		<rect id="SVGID_1_" y="0" width="19.941" height="22.014"/>
	</defs>
	<clipPath id="SVGID_2_">
		<use xlink:href="#SVGID_1_"  overflow="visible"/>
	</clipPath>
	<path clip-path="url(#SVGID_2_)" fill="#EFEFEF" d="M4.946,17.503c-0.27,0-0.53-0.11-0.71-0.29c-0.19-0.19-0.29-0.45-0.29-0.71
		c0-0.271,0.1-0.521,0.29-0.71c0.37-0.37,1.04-0.37,1.41,0c0.19,0.18,0.3,0.439,0.3,0.71c0,0.26-0.11,0.52-0.3,0.71
		C5.466,17.393,5.206,17.503,4.946,17.503"/>
	<path clip-path="url(#SVGID_2_)" fill="#EFEFEF" d="M13.946,16.503c0-0.551,0.45-1,1-1c0.56,0,1.01,0.449,1.01,1
		c0,0.55-0.45,1-1.01,1C14.396,17.503,13.946,17.053,13.946,16.503"/>
	<path clip-path="url(#SVGID_2_)" fill="#EFEFEF" d="M4.946,6.502c-0.27,0-0.52-0.11-0.71-0.29c-0.19-0.19-0.29-0.45-0.29-0.71
		c0-0.27,0.1-0.53,0.29-0.71c0.37-0.37,1.04-0.37,1.41,0c0.19,0.19,0.3,0.44,0.3,0.71c0,0.26-0.11,0.52-0.29,0.7
		C5.466,6.393,5.206,6.502,4.946,6.502"/>
	<path clip-path="url(#SVGID_2_)" fill="#EFEFEF" d="M13.946,5.502c0-0.56,0.45-1,1-1c0.56,0,1.01,0.44,1.01,1c0,0.55-0.45,1-1.01,1
		C14.396,6.502,13.946,6.053,13.946,5.502"/>
</g>
</svg>
