<?xml version="1.0" encoding="UTF-8" standalone="no"?>
<!-- Created with Inkscape (http://www.inkscape.org/) -->

<svg
   xmlns:dc="http://purl.org/dc/elements/1.1/"
   xmlns:cc="http://creativecommons.org/ns#"
   xmlns:rdf="http://www.w3.org/1999/02/22-rdf-syntax-ns#"
   xmlns:svg="http://www.w3.org/2000/svg"
   xmlns="http://www.w3.org/2000/svg"
   xmlns:sodipodi="http://sodipodi.sourceforge.net/DTD/sodipodi-0.dtd"
   xmlns:inkscape="http://www.inkscape.org/namespaces/inkscape"
   x="0px"
   y="0px"
   viewBox="0 0 310 310"
   width="310"
   height="310"
   id="svg2"
   version="1.1"
   inkscape:version="0.48.5 r10040"
   sodipodi:docname="Neues Dokument 1">
  <defs
     id="defs4" />
  <sodipodi:namedview
     id="base"
     pagecolor="#ffffff"
     bordercolor="#666666"
     borderopacity="1.0"
     inkscape:pageopacity="0.0"
     inkscape:pageshadow="2"
     inkscape:zoom="0.98994949"
     inkscape:cx="337.78974"
     inkscape:cy="147.41851"
     inkscape:document-units="px"
     inkscape:current-layer="layer1"
     showgrid="false"
     fit-margin-top="0"
     fit-margin-left="0"
     fit-margin-right="0"
     fit-margin-bottom="0"
     inkscape:window-width="1920"
     inkscape:window-height="1181"
     inkscape:window-x="-4"
     inkscape:window-y="-4"
     inkscape:window-maximized="1" />
  <metadata
     id="metadata7">
    <rdf:RDF>
      <cc:Work
         rdf:about="">
        <dc:format>image/svg+xml</dc:format>
        <dc:type
           rdf:resource="http://purl.org/dc/dcmitype/StillImage" />
        <dc:title></dc:title>
      </cc:Work>
    </rdf:RDF>
  </metadata>
  <g
     inkscape:label="Ebene 1"
     inkscape:groupmode="layer"
     id="layer1"
     transform="translate(-162.13619,-441.18618)">
    <g
       id="g3780"
       transform="translate(3.495785,-1.80262)">
      <g
         id="g3771">
        <path
           id="path3769"
           d="m 463.645,601.18619 c 0,82.84271 -67.15729,149.99999 -150,149.99999 -82.84271,0 -150,-67.15728 -150,-149.99999 0,-82.84272 67.15729,-150.00001 150,-150.00001 82.84271,0 150,67.15729 150,150.00001 z"
           style="color:#000000;fill:#000000;fill-opacity:0.1569966;fill-rule:nonzero;stroke:none;stroke-width:3;marker:none;visibility:visible;display:inline;overflow:visible;enable-background:accumulate"
           inkscape:connector-curvature="0" />
        <path
           inkscape:connector-curvature="0"
           style="color:#000000;fill:#000000;fill-opacity:0.1569966;fill-rule:nonzero;stroke:none;stroke-width:3;marker:none;visibility:visible;display:inline;overflow:visible;enable-background:accumulate"
           d="m 463.645,600.18619 c 0,82.84271 -67.15729,149.99999 -150,149.99999 -82.84271,0 -150,-67.15728 -150,-149.99999 0,-82.84272 67.15729,-150.00001 150,-150.00001 82.84271,0 150,67.15729 150,150.00001 z"
           id="path3767" />
        <path
           id="path3765"
           d="m 463.645,599.18619 c 0,82.84271 -67.15729,149.99999 -150,149.99999 -82.84271,0 -150,-67.15728 -150,-149.99999 0,-82.84272 67.15729,-150.00001 150,-150.00001 82.84271,0 150,67.15729 150,150.00001 z"
           style="color:#000000;fill:#000000;fill-opacity:0.1569966;fill-rule:nonzero;stroke:none;stroke-width:3;marker:none;visibility:visible;display:inline;overflow:visible;enable-background:accumulate"
           inkscape:connector-curvature="0" />
        <path
           inkscape:connector-curvature="0"
           style="color:#000000;fill:#000000;fill-opacity:0.1569966;fill-rule:nonzero;stroke:none;stroke-width:3;marker:none;visibility:visible;display:inline;overflow:visible;enable-background:accumulate"
           d="m 463.645,598.18619 c 0,82.84271 -67.15729,149.99999 -150,149.99999 -82.84271,0 -150,-67.15728 -150,-149.99999 0,-82.84272 67.15729,-150.00001 150,-150.00001 82.84271,0 150,67.15729 150,150.00001 z"
           id="path3763" />
        <path
           id="path3761"
           d="m 463.645,597.18619 c 0,82.84271 -67.15729,149.99999 -150,149.99999 -82.84271,0 -150,-67.15728 -150,-149.99999 0,-82.84272 67.15729,-150.00001 150,-150.00001 82.84271,0 150,67.15729 150,150.00001 z"
           style="color:#000000;fill:#000000;fill-opacity:0.1569966;fill-rule:nonzero;stroke:none;stroke-width:3;marker:none;visibility:visible;display:inline;overflow:visible;enable-background:accumulate"
           inkscape:connector-curvature="0" />
        <path
           inkscape:connector-curvature="0"
           transform="matrix(0.7139059,0,0,0.7139059,46.818073,213.50822)"
           style="color:#000000;fill:#e00073;fill-opacity:1;fill-rule:nonzero;stroke:none;stroke-width:3;marker:none;visibility:visible;display:inline;overflow:visible;enable-background:accumulate"
           d="m 583.86816,536.17426 c 0,116.0415 -94.07022,210.11172 -210.11172,210.11172 -116.0415,0 -210.11173,-94.07022 -210.11173,-210.11172 0,-116.04151 94.07023,-210.11173 210.11173,-210.11173 116.0415,0 210.11172,94.07022 210.11172,210.11173 z"
           id="path2985" />
        <path
           style="font-size:medium;font-style:normal;font-variant:normal;font-weight:normal;font-stretch:normal;text-indent:0;text-align:start;text-decoration:none;line-height:normal;letter-spacing:normal;word-spacing:normal;text-transform:none;direction:ltr;block-progression:tb;writing-mode:lr-tb;text-anchor:start;baseline-shift:baseline;color:#000000;fill:#ffffff;fill-opacity:1;stroke:none;stroke-width:4.20223427;marker:none;visibility:visible;display:inline;overflow:visible;enable-background:accumulate;font-family:Sans;-inkscape-font-specification:Sans"
           d="m 313.6404,444.79142 c -83.65337,0 -151.50421,67.85084 -151.50421,151.50422 0,83.65337 67.85084,151.48191 151.50421,151.48191 83.65338,0 151.50422,-67.82854 151.50422,-151.48191 0,-83.65338 -67.85084,-151.50422 -151.50422,-151.50422 z m 0,2.98948 c 82.03205,0 148.51474,66.48268 148.51474,148.51474 0,82.03205 -66.48269,148.49243 -148.51474,148.49243 -82.03205,0 -148.49242,-66.46038 -148.49242,-148.49243 0,-82.03206 66.46037,-148.51474 148.49242,-148.51474 z"
           id="path3755"
           inkscape:connector-curvature="0" />
      </g>
    </g>
  </g>
</svg>
