<?xml version="1.0" encoding="UTF-8" standalone="no"?>
<!-- Created with Inkscape (http://www.inkscape.org/) -->

<svg
   xmlns:dc="http://purl.org/dc/elements/1.1/"
   xmlns:cc="http://creativecommons.org/ns#"
   xmlns:rdf="http://www.w3.org/1999/02/22-rdf-syntax-ns#"
   xmlns:svg="http://www.w3.org/2000/svg"
   xmlns="http://www.w3.org/2000/svg"
   version="1.1"
   x="0px"
   y="0px"
   viewBox="0 0 588.10742 340.4834"
   width="588.10742"
   height="340.4834"
   id="svg4825">
  <defs
     id="defs4827" />
  <metadata
     id="metadata4830">
    <rdf:RDF>
      <cc:Work
         rdf:about="">
        <dc:format>image/svg+xml</dc:format>
        <dc:type
           rdf:resource="http://purl.org/dc/dcmitype/StillImage" />
        <dc:title></dc:title>
      </cc:Work>
    </rdf:RDF>
  </metadata>
  <g
     transform="matrix(0,3.9833172,3.9833172,0,621.93448,204.37742)"
     id="g15650"
     style="fill:#3c90b4;fill-opacity:1">
    <path
       d="m -20.225648,-55.116171 38.853323,0 0,7.770665 7.770664,0 0,7.770664 7.770665,0 0,15.541329 -7.770665,0 0,7.770665 -7.770664,0 0,7.7706645 -38.853323,0 0,-15.5413295 34.190924,0 4.662399,0 0,-15.541329 -4.662399,0 -34.190924,0 0,-15.541329 z"
       id="rect4520-4"
       style="color:#000000;fill:#3c90b4;fill-opacity:1;fill-rule:nonzero;stroke:none;stroke-width:1;marker:none;visibility:visible;display:inline;overflow:visible;enable-background:accumulate" />
    <rect
       width="15.541329"
       height="54.394688"
       x="-78.428162"
       y="-20.225689"
       transform="matrix(0,1,1,0,0,0)"
       id="rect4518-7"
       style="color:#000000;fill:#3c90b4;fill-opacity:1;fill-rule:nonzero;stroke:none;stroke-width:1;marker:none;visibility:visible;display:inline;overflow:visible;enable-background:accumulate" />
    <rect
       width="15.541329"
       height="15.541329"
       x="-78.428162"
       y="-51.308346"
       transform="matrix(0,1,1,0,0,0)"
       id="rect4516-2"
       style="color:#000000;fill:#3c90b4;fill-opacity:1;fill-rule:nonzero;stroke:none;stroke-width:1;marker:none;visibility:visible;display:inline;overflow:visible;enable-background:accumulate" />
    <path
       d="m -51.308306,-132.82282 31.082658,0 15.5413291,0 38.8533229,0 0,15.54133 -38.8533229,0 0,7.77067 0,7.77066 3.1082658,0 35.7450571,0 0,15.541331 -38.8533229,0 0,-7.770664 -7.7706641,0 0,-7.770667 -7.770665,0 0,-15.54133 -31.082658,0 0,-15.54133 z"
       id="rect4505-2"
       style="color:#000000;fill:#3c90b4;fill-opacity:1;fill-rule:nonzero;stroke:none;stroke-width:1;marker:none;visibility:visible;display:inline;overflow:visible;enable-background:accumulate" />
    <rect
       width="15.541329"
       height="15.541329"
       x="-156.13481"
       y="18.627634"
       transform="matrix(0,1,1,0,0,0)"
       id="rect4418-7"
       style="color:#000000;fill:#3c90b4;fill-opacity:1;fill-rule:nonzero;stroke:none;stroke-width:1;marker:none;visibility:visible;display:inline;overflow:visible;enable-background:accumulate" />
  </g>
  <g
     transform="matrix(0,3.9833172,3.9833172,0,621.93448,204.37742)"
     id="g15679"
     style="fill:#1a679b;fill-opacity:1">
    <rect
       width="7.7706647"
       height="7.7706981"
       x="-156.13481"
       y="18.627634"
       transform="matrix(0,1,1,0,0,0)"
       id="rect3783-9"
       style="color:#000000;fill:#1a679b;fill-opacity:1;fill-rule:nonzero;stroke:none;stroke-width:1;marker:none;visibility:visible;display:inline;overflow:visible;enable-background:accumulate" />
    <path
       d="m -12.454983,-125.05215 3.1082654,0 4.6623987,0 15.5413289,0 0,7.77066 -15.5413289,0 -4.6623987,0 -3.1082654,0 0,-7.77066 z"
       id="rect3805-7"
       style="color:#000000;fill:#1a679b;fill-opacity:1;fill-rule:nonzero;stroke:none;stroke-width:1;marker:none;visibility:visible;display:inline;overflow:visible;enable-background:accumulate" />
    <path
       d="m -43.537641,-125.05215 3.108265,0 4.662399,0 15.541329,0 0,7.77066 -15.541329,0 -4.662399,0 -3.108265,0 0,-7.77066 z"
       id="rect3821-6"
       style="color:#000000;fill:#1a679b;fill-opacity:1;fill-rule:nonzero;stroke:none;stroke-width:1;marker:none;visibility:visible;display:inline;overflow:visible;enable-background:accumulate" />
    <rect
       width="7.7706647"
       height="7.7706981"
       x="-78.428162"
       y="-43.537682"
       transform="matrix(0,1,1,0,0,0)"
       id="rect3899-6"
       style="color:#000000;fill:#1a679b;fill-opacity:1;fill-rule:nonzero;stroke:none;stroke-width:1;marker:none;visibility:visible;display:inline;overflow:visible;enable-background:accumulate" />
    <rect
       width="7.7706647"
       height="7.7706981"
       x="-47.345505"
       y="3.0863044"
       transform="matrix(0,1,1,0,0,0)"
       id="rect3909-2"
       style="color:#000000;fill:#1a679b;fill-opacity:1;fill-rule:nonzero;stroke:none;stroke-width:1;marker:none;visibility:visible;display:inline;overflow:visible;enable-background:accumulate" />
    <rect
       width="7.7706647"
       height="7.7706981"
       x="-55.116169"
       y="-20.225689"
       transform="matrix(0,1,1,0,0,0)"
       id="rect3923-3"
       style="color:#000000;fill:#1a679b;fill-opacity:1;fill-rule:nonzero;stroke:none;stroke-width:1;marker:none;visibility:visible;display:inline;overflow:visible;enable-background:accumulate" />
  </g>
  <g
     transform="matrix(0,3.9833172,3.9833172,0,621.93448,204.37742)"
     id="g15657"
     style="fill:#0d4f67;fill-opacity:1">
    <rect
       width="7.7706647"
       height="7.7706981"
       x="-148.36415"
       y="18.627634"
       transform="matrix(0,1,1,0,0,0)"
       id="rect3785-3"
       style="color:#000000;fill:#0d4f67;fill-opacity:1;fill-rule:nonzero;stroke:none;stroke-width:1;marker:none;visibility:visible;display:inline;overflow:visible;enable-background:accumulate" />
    <path
       d="m -20.239013,-132.82282 7.78403,0 0,6.21654 0,1.55413 0,7.77066 -7.78403,0 0,-7.77066 0,-1.55413 0,-6.21654 z"
       id="rect3815-7"
       style="color:#000000;fill:#0d4f67;fill-opacity:1;fill-rule:nonzero;stroke:none;stroke-width:1;marker:none;visibility:visible;display:inline;overflow:visible;enable-background:accumulate" />
    <rect
       width="7.7706647"
       height="7.7706981"
       x="-125.05215"
       y="-51.308346"
       transform="matrix(0,1,1,0,0,0)"
       id="rect3833-0"
       style="color:#000000;fill:#0d4f67;fill-opacity:1;fill-rule:nonzero;stroke:none;stroke-width:1;marker:none;visibility:visible;display:inline;overflow:visible;enable-background:accumulate" />
    <path
       d="m -12.454983,-70.6575 3.1082654,0 4.6623987,0 7.7706645,0 0,7.770665 -7.7706645,0 -4.6623987,0 -3.1082654,0 0,-7.770665 z"
       id="rect3869-9"
       style="color:#000000;fill:#0d4f67;fill-opacity:1;fill-rule:nonzero;stroke:none;stroke-width:1;marker:none;visibility:visible;display:inline;overflow:visible;enable-background:accumulate" />
    <path
       d="m 18.627675,-70.6575 7.770664,0 0,-7.770664 7.770665,0 0,7.770664 0,3.108266 0,4.662399 -4.662399,0 -3.108266,0 -7.770664,0 0,-7.770665 z"
       id="rect3881-6"
       style="color:#000000;fill:#0d4f67;fill-opacity:1;fill-rule:nonzero;stroke:none;stroke-width:1;marker:none;visibility:visible;display:inline;overflow:visible;enable-background:accumulate" />
    <path
       d="m 3.0863456,-24.033513 3.1082658,0 4.6623986,0 15.541329,0 0,7.770665 -15.541329,0 -4.6623986,0 -3.1082658,0 0,-7.770665 z"
       id="rect3935-0"
       style="color:#000000;fill:#0d4f67;fill-opacity:1;fill-rule:nonzero;stroke:none;stroke-width:1;marker:none;visibility:visible;display:inline;overflow:visible;enable-background:accumulate" />
  </g>
  <g
     transform="matrix(0,3.9833172,3.9833172,0,621.93448,204.37742)"
     id="g15665"
     style="fill:#2c7fa7;fill-opacity:1">
    <rect
       width="7.7706647"
       height="7.7706981"
       x="-156.13481"
       y="26.398298"
       transform="matrix(0,1,1,0,0,0)"
       id="rect3787-5"
       style="color:#000000;fill:#2c7fa7;fill-opacity:1;fill-rule:nonzero;stroke:none;stroke-width:1;marker:none;visibility:visible;display:inline;overflow:visible;enable-background:accumulate" />
    <rect
       width="7.7706647"
       height="7.7706981"
       x="-132.82281"
       y="26.398298"
       transform="matrix(0,1,1,0,0,0)"
       id="rect3791-5"
       style="color:#000000;fill:#2c7fa7;fill-opacity:1;fill-rule:nonzero;stroke:none;stroke-width:1;marker:none;visibility:visible;display:inline;overflow:visible;enable-background:accumulate" />
    <rect
       width="7.7706647"
       height="7.7706981"
       x="-125.05215"
       y="18.627634"
       transform="matrix(0,1,1,0,0,0)"
       id="rect3797-3"
       style="color:#000000;fill:#2c7fa7;fill-opacity:1;fill-rule:nonzero;stroke:none;stroke-width:1;marker:none;visibility:visible;display:inline;overflow:visible;enable-background:accumulate" />
    <rect
       width="7.7706647"
       height="7.7706981"
       x="-132.82281"
       y="-4.68436"
       transform="matrix(0,1,1,0,0,0)"
       id="rect3807-2"
       style="color:#000000;fill:#2c7fa7;fill-opacity:1;fill-rule:nonzero;stroke:none;stroke-width:1;marker:none;visibility:visible;display:inline;overflow:visible;enable-background:accumulate" />
    <rect
       width="7.7706647"
       height="7.7706981"
       x="-101.74016"
       y="3.0863044"
       transform="matrix(0,1,1,0,0,0)"
       id="rect3849-9"
       style="color:#000000;fill:#2c7fa7;fill-opacity:1;fill-rule:nonzero;stroke:none;stroke-width:1;marker:none;visibility:visible;display:inline;overflow:visible;enable-background:accumulate" />
    <rect
       width="7.7706647"
       height="7.7706981"
       x="-93.96949"
       y="18.627634"
       transform="matrix(0,1,1,0,0,0)"
       id="rect3859-0"
       style="color:#000000;fill:#2c7fa7;fill-opacity:1;fill-rule:nonzero;stroke:none;stroke-width:1;marker:none;visibility:visible;display:inline;overflow:visible;enable-background:accumulate" />
    <path
       d="m -4.6843189,-78.428164 23.3119939,0 3.108265,0 4.662399,0 0,7.770664 -4.662399,0 -3.108265,0 -23.3119939,0 0,-7.770664 z"
       id="rect3867-2"
       style="color:#000000;fill:#2c7fa7;fill-opacity:1;fill-rule:nonzero;stroke:none;stroke-width:1;marker:none;visibility:visible;display:inline;overflow:visible;enable-background:accumulate" />
    <path
       d="m -12.454983,-47.345506 3.1082654,0 4.6623987,0 7.7706645,0 0,7.770664 -7.7706645,0 -4.6623987,0 -3.1082654,0 0,-7.770664 z"
       id="rect3905-4"
       style="color:#000000;fill:#2c7fa7;fill-opacity:1;fill-rule:nonzero;stroke:none;stroke-width:1;marker:none;visibility:visible;display:inline;overflow:visible;enable-background:accumulate" />
    <rect
       width="7.7706647"
       height="7.7706981"
       x="-47.345505"
       y="10.856969"
       transform="matrix(0,1,1,0,0,0)"
       id="rect3913-7"
       style="color:#000000;fill:#2c7fa7;fill-opacity:1;fill-rule:nonzero;stroke:none;stroke-width:1;marker:none;visibility:visible;display:inline;overflow:visible;enable-background:accumulate" />
    <rect
       width="7.7706647"
       height="7.7706981"
       x="-31.804176"
       y="26.398298"
       transform="matrix(0,1,1,0,0,0)"
       id="rect3921-0"
       style="color:#000000;fill:#2c7fa7;fill-opacity:1;fill-rule:nonzero;stroke:none;stroke-width:1;marker:none;visibility:visible;display:inline;overflow:visible;enable-background:accumulate" />
    <rect
       width="7.7706647"
       height="7.7706981"
       x="-24.033512"
       y="-4.68436"
       transform="matrix(0,1,1,0,0,0)"
       id="rect3931-4"
       style="color:#000000;fill:#2c7fa7;fill-opacity:1;fill-rule:nonzero;stroke:none;stroke-width:1;marker:none;visibility:visible;display:inline;overflow:visible;enable-background:accumulate" />
    <rect
       width="7.7706647"
       height="7.7706981"
       x="-16.262848"
       y="10.856969"
       transform="matrix(0,1,1,0,0,0)"
       id="rect3941-5"
       style="color:#000000;fill:#2c7fa7;fill-opacity:1;fill-rule:nonzero;stroke:none;stroke-width:1;marker:none;visibility:visible;display:inline;overflow:visible;enable-background:accumulate" />
  </g>
</svg>
