<?xml version="1.0" encoding="UTF-8" standalone="no"?>
<!-- Created with Inkscape (http://www.inkscape.org/) -->

<svg
   xmlns:dc="http://purl.org/dc/elements/1.1/"
   xmlns:cc="http://creativecommons.org/ns#"
   xmlns:rdf="http://www.w3.org/1999/02/22-rdf-syntax-ns#"
   xmlns:svg="http://www.w3.org/2000/svg"
   xmlns="http://www.w3.org/2000/svg"
   xmlns:sodipodi="http://sodipodi.sourceforge.net/DTD/sodipodi-0.dtd"
   xmlns:inkscape="http://www.inkscape.org/namespaces/inkscape"
   version="1.1"
   x="0px"
   y="0px"
   viewBox="0 0 588.10742 340.4834"
   width="588.10742"
   height="340.4834"
   id="svg4825"
   inkscape:version="0.48.5 r10040"
   sodipodi:docname="dothiv-logo.svg">
  <sodipodi:namedview
     pagecolor="#ffffff"
     bordercolor="#666666"
     borderopacity="1"
     objecttolerance="10"
     gridtolerance="10"
     guidetolerance="10"
     inkscape:pageopacity="0"
     inkscape:pageshadow="2"
     inkscape:window-width="1920"
     inkscape:window-height="1181"
     id="namedview38"
     showgrid="false"
     inkscape:zoom="0.69313218"
     inkscape:cx="294.25502"
     inkscape:cy="170.32649"
     inkscape:window-x="-4"
     inkscape:window-y="-4"
     inkscape:window-maximized="1"
     inkscape:current-layer="svg4825" />
  <defs
     id="defs4827" />
  <metadata
     id="metadata4830">
    <rdf:RDF>
      <cc:Work
         rdf:about="">
        <dc:format>image/svg+xml</dc:format>
        <dc:type
           rdf:resource="http://purl.org/dc/dcmitype/StillImage" />
        <dc:title />
      </cc:Work>
    </rdf:RDF>
  </metadata>
  <g
     id="g3166"
     transform="translate(-19.017893,-15.869994)">
    <g
       style="fill:#e3007e;fill-opacity:1"
       id="g15650"
       transform="matrix(0,3.9833172,3.9833172,0,640.95237,220.24741)">
      <path
         inkscape:connector-curvature="0"
         style="color:#000000;fill:#e3007e;fill-opacity:1;fill-rule:nonzero;stroke:none;stroke-width:1;marker:none;visibility:visible;display:inline;overflow:visible;enable-background:accumulate"
         d="m -20.225648,-55.116171 38.853323,0 0,7.770665 7.770664,0 0,7.770664 7.770665,0 0,15.541329 -7.770665,0 0,7.770665 -7.770664,0 0,7.7706645 -38.853323,0 0,-15.5413295 34.190924,0 4.662399,0 0,-15.541329 -4.662399,0 -34.190924,0 0,-15.541329 z"
         id="rect4520-4" />
      <rect
         style="color:#000000;fill:#e3007e;fill-opacity:1;fill-rule:nonzero;stroke:none;stroke-width:1;marker:none;visibility:visible;display:inline;overflow:visible;enable-background:accumulate"
         id="rect4518-7"
         width="15.541329"
         height="54.394688"
         x="-78.428162"
         y="-20.225689"
         transform="matrix(0,1,1,0,0,0)" />
      <rect
         y="-51.308346"
         x="-78.428162"
         height="15.541329"
         width="15.541329"
         id="rect4516-2"
         style="color:#000000;fill:#e3007e;fill-opacity:1;fill-rule:nonzero;stroke:none;stroke-width:1;marker:none;visibility:visible;display:inline;overflow:visible;enable-background:accumulate"
         transform="matrix(0,1,1,0,0,0)" />
      <path
         inkscape:connector-curvature="0"
         style="color:#000000;fill:#e3007e;fill-opacity:1;fill-rule:nonzero;stroke:none;stroke-width:1;marker:none;visibility:visible;display:inline;overflow:visible;enable-background:accumulate"
         d="m -51.308306,-132.82282 31.082658,0 15.5413291,0 38.8533229,0 0,15.54133 -38.8533229,0 0,7.77067 0,7.77066 3.1082658,0 35.7450571,0 0,15.541331 -38.8533229,0 0,-7.770664 -7.7706641,0 0,-7.770667 -7.770665,0 0,-15.54133 -31.082658,0 0,-15.54133 z"
         id="rect4505-2" />
      <rect
         style="color:#000000;fill:#e3007e;fill-opacity:1;fill-rule:nonzero;stroke:none;stroke-width:1;marker:none;visibility:visible;display:inline;overflow:visible;enable-background:accumulate"
         id="rect4418-7"
         width="15.541329"
         height="15.541329"
         x="-156.13481"
         y="18.627634"
         transform="matrix(0,1,1,0,0,0)" />
    </g>
    <g
       style="fill:#8e2729;fill-opacity:1"
       id="g15679"
       transform="matrix(0,3.9833172,3.9833172,0,640.95237,220.24741)">
      <rect
         style="color:#000000;fill:#8e2729;fill-opacity:1;fill-rule:nonzero;stroke:none;stroke-width:1;marker:none;visibility:visible;display:inline;overflow:visible;enable-background:accumulate"
         id="rect3783-9"
         width="7.7706647"
         height="7.7706981"
         x="-156.13481"
         y="18.627634"
         transform="matrix(0,1,1,0,0,0)" />
      <path
         inkscape:connector-curvature="0"
         style="color:#000000;fill:#8e2729;fill-opacity:1;fill-rule:nonzero;stroke:none;stroke-width:1;marker:none;visibility:visible;display:inline;overflow:visible;enable-background:accumulate"
         d="m -12.454983,-125.05215 3.1082654,0 4.6623987,0 15.5413289,0 0,7.77066 -15.5413289,0 -4.6623987,0 -3.1082654,0 0,-7.77066 z"
         id="rect3805-7" />
      <path
         inkscape:connector-curvature="0"
         style="color:#000000;fill:#8e2729;fill-opacity:1;fill-rule:nonzero;stroke:none;stroke-width:1;marker:none;visibility:visible;display:inline;overflow:visible;enable-background:accumulate"
         d="m -43.537641,-125.05215 3.108265,0 4.662399,0 15.541329,0 0,7.77066 -15.541329,0 -4.662399,0 -3.108265,0 0,-7.77066 z"
         id="rect3821-6" />
      <rect
         y="-43.537682"
         x="-78.428162"
         height="7.7706981"
         width="7.7706647"
         id="rect3899-6"
         style="color:#000000;fill:#8e2729;fill-opacity:1;fill-rule:nonzero;stroke:none;stroke-width:1;marker:none;visibility:visible;display:inline;overflow:visible;enable-background:accumulate"
         transform="matrix(0,1,1,0,0,0)" />
      <rect
         y="3.0863044"
         x="-47.345505"
         height="7.7706981"
         width="7.7706647"
         id="rect3909-2"
         style="color:#000000;fill:#8e2729;fill-opacity:1;fill-rule:nonzero;stroke:none;stroke-width:1;marker:none;visibility:visible;display:inline;overflow:visible;enable-background:accumulate"
         transform="matrix(0,1,1,0,0,0)" />
      <rect
         style="color:#000000;fill:#8e2729;fill-opacity:1;fill-rule:nonzero;stroke:none;stroke-width:1;marker:none;visibility:visible;display:inline;overflow:visible;enable-background:accumulate"
         id="rect3923-3"
         width="7.7706647"
         height="7.7706981"
         x="-55.116169"
         y="-20.225689"
         transform="matrix(0,1,1,0,0,0)" />
    </g>
    <g
       style="fill:#322424;fill-opacity:1"
       id="g15657"
       transform="matrix(0,3.9833172,3.9833172,0,640.95237,220.24741)">
      <rect
         y="18.627634"
         x="-148.36415"
         height="7.7706981"
         width="7.7706647"
         id="rect3785-3"
         style="color:#000000;fill:#322424;fill-opacity:1;fill-rule:nonzero;stroke:none;stroke-width:1;marker:none;visibility:visible;display:inline;overflow:visible;enable-background:accumulate"
         transform="matrix(0,1,1,0,0,0)" />
      <path
         style="color:#000000;fill:#322424;fill-opacity:1;fill-rule:nonzero;stroke:none;stroke-width:1;marker:none;visibility:visible;display:inline;overflow:visible;enable-background:accumulate"
         d="m -20.239013,-132.82282 7.78403,0 0,6.21654 0,1.55413 0,7.77066 -7.78403,0 0,-7.77066 0,-1.55413 0,-6.21654 z"
         id="rect3815-7"
         inkscape:connector-curvature="0" />
      <rect
         y="-51.308346"
         x="-125.05215"
         height="7.7706981"
         width="7.7706647"
         id="rect3833-0"
         style="color:#000000;fill:#322424;fill-opacity:1;fill-rule:nonzero;stroke:none;stroke-width:1;marker:none;visibility:visible;display:inline;overflow:visible;enable-background:accumulate"
         transform="matrix(0,1,1,0,0,0)" />
      <path
         inkscape:connector-curvature="0"
         style="color:#000000;fill:#322424;fill-opacity:1;fill-rule:nonzero;stroke:none;stroke-width:1;marker:none;visibility:visible;display:inline;overflow:visible;enable-background:accumulate"
         d="m -12.454983,-70.6575 3.1082654,0 4.6623987,0 7.7706645,0 0,7.770665 -7.7706645,0 -4.6623987,0 -3.1082654,0 0,-7.770665 z"
         id="rect3869-9" />
      <path
         inkscape:connector-curvature="0"
         style="color:#000000;fill:#322424;fill-opacity:1;fill-rule:nonzero;stroke:none;stroke-width:1;marker:none;visibility:visible;display:inline;overflow:visible;enable-background:accumulate"
         d="m 18.627675,-70.6575 7.770664,0 0,-7.770664 7.770665,0 0,7.770664 0,3.108266 0,4.662399 -4.662399,0 -3.108266,0 -7.770664,0 0,-7.770665 z"
         id="rect3881-6" />
      <path
         inkscape:connector-curvature="0"
         style="color:#000000;fill:#322424;fill-opacity:1;fill-rule:nonzero;stroke:none;stroke-width:1;marker:none;visibility:visible;display:inline;overflow:visible;enable-background:accumulate"
         d="m 3.0863456,-24.033513 3.1082658,0 4.6623986,0 15.541329,0 0,7.770665 -15.541329,0 -4.6623986,0 -3.1082658,0 0,-7.770665 z"
         id="rect3935-0" />
    </g>
    <g
       style="fill:#e31e2d;fill-opacity:1"
       id="g15665"
       transform="matrix(0,3.9833172,3.9833172,0,640.95237,220.24741)">
      <rect
         y="26.398298"
         x="-156.13481"
         height="7.7706981"
         width="7.7706647"
         id="rect3787-5"
         style="color:#000000;fill:#e31e2d;fill-opacity:1;fill-rule:nonzero;stroke:none;stroke-width:1;marker:none;visibility:visible;display:inline;overflow:visible;enable-background:accumulate"
         transform="matrix(0,1,1,0,0,0)" />
      <rect
         y="26.398298"
         x="-132.82281"
         height="7.7706981"
         width="7.7706647"
         id="rect3791-5"
         style="color:#000000;fill:#e31e2d;fill-opacity:1;fill-rule:nonzero;stroke:none;stroke-width:1;marker:none;visibility:visible;display:inline;overflow:visible;enable-background:accumulate"
         transform="matrix(0,1,1,0,0,0)" />
      <rect
         y="18.627634"
         x="-125.05215"
         height="7.7706981"
         width="7.7706647"
         id="rect3797-3"
         style="color:#000000;fill:#e31e2d;fill-opacity:1;fill-rule:nonzero;stroke:none;stroke-width:1;marker:none;visibility:visible;display:inline;overflow:visible;enable-background:accumulate"
         transform="matrix(0,1,1,0,0,0)" />
      <rect
         y="-4.68436"
         x="-132.82281"
         height="7.7706981"
         width="7.7706647"
         id="rect3807-2"
         style="color:#000000;fill:#e31e2d;fill-opacity:1;fill-rule:nonzero;stroke:none;stroke-width:1;marker:none;visibility:visible;display:inline;overflow:visible;enable-background:accumulate"
         transform="matrix(0,1,1,0,0,0)" />
      <rect
         style="color:#000000;fill:#e31e2d;fill-opacity:1;fill-rule:nonzero;stroke:none;stroke-width:1;marker:none;visibility:visible;display:inline;overflow:visible;enable-background:accumulate"
         id="rect3849-9"
         width="7.7706647"
         height="7.7706981"
         x="-101.74016"
         y="3.0863044"
         transform="matrix(0,1,1,0,0,0)" />
      <rect
         style="color:#000000;fill:#e31e2d;fill-opacity:1;fill-rule:nonzero;stroke:none;stroke-width:1;marker:none;visibility:visible;display:inline;overflow:visible;enable-background:accumulate"
         id="rect3859-0"
         width="7.7706647"
         height="7.7706981"
         x="-93.96949"
         y="18.627634"
         transform="matrix(0,1,1,0,0,0)" />
      <path
         inkscape:connector-curvature="0"
         style="color:#000000;fill:#e31e2d;fill-opacity:1;fill-rule:nonzero;stroke:none;stroke-width:1;marker:none;visibility:visible;display:inline;overflow:visible;enable-background:accumulate"
         d="m -4.6843189,-78.428164 23.3119939,0 3.108265,0 4.662399,0 0,7.770664 -4.662399,0 -3.108265,0 -23.3119939,0 0,-7.770664 z"
         id="rect3867-2" />
      <path
         inkscape:connector-curvature="0"
         style="color:#000000;fill:#e31e2d;fill-opacity:1;fill-rule:nonzero;stroke:none;stroke-width:1;marker:none;visibility:visible;display:inline;overflow:visible;enable-background:accumulate"
         d="m -12.454983,-47.345506 3.1082654,0 4.6623987,0 7.7706645,0 0,7.770664 -7.7706645,0 -4.6623987,0 -3.1082654,0 0,-7.770664 z"
         id="rect3905-4" />
      <rect
         y="10.856969"
         x="-47.345505"
         height="7.7706981"
         width="7.7706647"
         id="rect3913-7"
         style="color:#000000;fill:#e31e2d;fill-opacity:1;fill-rule:nonzero;stroke:none;stroke-width:1;marker:none;visibility:visible;display:inline;overflow:visible;enable-background:accumulate"
         transform="matrix(0,1,1,0,0,0)" />
      <rect
         y="26.398298"
         x="-31.804176"
         height="7.7706981"
         width="7.7706647"
         id="rect3921-0"
         style="color:#000000;fill:#e31e2d;fill-opacity:1;fill-rule:nonzero;stroke:none;stroke-width:1;marker:none;visibility:visible;display:inline;overflow:visible;enable-background:accumulate"
         transform="matrix(0,1,1,0,0,0)" />
      <rect
         style="color:#000000;fill:#e31e2d;fill-opacity:1;fill-rule:nonzero;stroke:none;stroke-width:1;marker:none;visibility:visible;display:inline;overflow:visible;enable-background:accumulate"
         id="rect3931-4"
         width="7.7706647"
         height="7.7706981"
         x="-24.033512"
         y="-4.68436"
         transform="matrix(0,1,1,0,0,0)" />
      <rect
         style="color:#000000;fill:#e31e2d;fill-opacity:1;fill-rule:nonzero;stroke:none;stroke-width:1;marker:none;visibility:visible;display:inline;overflow:visible;enable-background:accumulate"
         id="rect3941-5"
         width="7.7706647"
         height="7.7706981"
         x="-16.262848"
         y="10.856969"
         transform="matrix(0,1,1,0,0,0)" />
    </g>
  </g>
</svg>
