<?xml version="1.0" encoding="UTF-8" standalone="no"?>
<!-- Created with Inkscape (http://www.inkscape.org/) -->

<svg
   xmlns:dc="http://purl.org/dc/elements/1.1/"
   xmlns:cc="http://creativecommons.org/ns#"
   xmlns:rdf="http://www.w3.org/1999/02/22-rdf-syntax-ns#"
   xmlns:svg="http://www.w3.org/2000/svg"
   xmlns="http://www.w3.org/2000/svg"
   xmlns:sodipodi="http://sodipodi.sourceforge.net/DTD/sodipodi-0.dtd"
   xmlns:inkscape="http://www.inkscape.org/namespaces/inkscape"
   id="svg3189"
   version="1.1"
   inkscape:version="0.48.5 r10040"
   width="1024"
   height="1024"
   sodipodi:docname="grey-diamond.svg">
  <metadata
     id="metadata3195">
    <rdf:RDF>
      <cc:Work
         rdf:about="">
        <dc:format>image/svg+xml</dc:format>
        <dc:type
           rdf:resource="http://purl.org/dc/dcmitype/StillImage" />
        <dc:title></dc:title>
      </cc:Work>
    </rdf:RDF>
  </metadata>
  <defs
     id="defs3193">
    <inkscape:perspective
       sodipodi:type="inkscape:persp3d"
       inkscape:vp_x="0 : 512 : 1"
       inkscape:vp_y="0 : 1000 : 0"
       inkscape:vp_z="1024 : 512 : 1"
       inkscape:persp3d-origin="512 : 341.33333 : 1"
       id="perspective4501" />
  </defs>
  <sodipodi:namedview
     pagecolor="#ffffff"
     bordercolor="#666666"
     borderopacity="1"
     objecttolerance="10"
     gridtolerance="10"
     guidetolerance="10"
     inkscape:pageopacity="0"
     inkscape:pageshadow="2"
     inkscape:window-width="1920"
     inkscape:window-height="1181"
     id="namedview3191"
     showgrid="false"
     fit-margin-top="0"
     fit-margin-left="0"
     fit-margin-right="0"
     fit-margin-bottom="0"
     inkscape:zoom="0.22628084"
     inkscape:cx="-820.89717"
     inkscape:cy="509.49179"
     inkscape:window-x="-4"
     inkscape:window-y="-4"
     inkscape:window-maximized="1"
     inkscape:current-layer="g5654" />
  <path
     sodipodi:type="arc"
     style="color:#000000;fill:#ececec;fill-opacity:1;fill-rule:nonzero;stroke:none;stroke-width:3;marker:none;visibility:visible;display:inline;overflow:visible;enable-background:accumulate"
     id="path3199"
     sodipodi:cx="472.64233"
     sodipodi:cy="1087.9672"
     sodipodi:rx="54.68589"
     sodipodi:ry="54.68589"
     d="m 527.32822,1087.9672 a 54.68589,54.68589 0 1 1 -109.37178,0 54.68589,54.68589 0 1 1 109.37178,0 z"
     transform="matrix(9.3625613,0,0,9.3625613,-3913.1428,-9674.1593)" />
  <g
     id="g5654"
     transform="matrix(6.3579179,6.8727312,-6.8727312,6.3579179,3714.5234,-8336.3063)">
    <g
       id="g4621"
       transform="matrix(8.8674814,0,0,8.8674814,-3141.7987,-7404.4683)"
       style="fill:#0095da;fill-opacity:1">
      <path
         id="path4591"
         d="m 408.46574,932.29352 c -0.008,-0.0139 -0.017,-0.0269 -0.0276,-0.0394 -0.004,-0.005 -0.008,-0.01 -0.0126,-0.0143 -0.003,-0.003 -0.005,-0.006 -0.008,-0.009 -0.0108,-0.01 -0.0224,-0.0183 -0.0344,-0.0259 -0.002,-10e-4 -0.004,-0.003 -0.006,-0.005 -0.0184,-0.0113 -0.0379,-0.0196 -0.0581,-0.0258 -0.002,-7.1e-4 -0.004,-0.002 -0.006,-0.003 l -2.38022,-0.69204 c -0.002,-3.2e-4 -0.004,-1.4e-4 -0.005,-5.8e-4 -0.0206,-0.006 -0.0418,-0.009 -0.0635,-0.009 -0.004,-6e-5 -0.008,4.9e-4 -0.0125,6.6e-4 -0.017,4.9e-4 -0.0343,0.003 -0.0516,0.007 -0.006,10e-4 -0.0119,0.003 -0.0179,0.005 -0.005,10e-4 -0.01,0.002 -0.0143,0.004 -0.0132,0.005 -0.025,0.0116 -0.0369,0.0183 -0.002,10e-4 -0.005,0.002 -0.008,0.004 -0.019,0.0117 -0.0356,0.0257 -0.0505,0.0412 -0.002,0.002 -0.003,0.002 -0.005,0.004 l -3.26214,3.52628 c -0.003,0.003 -0.004,0.006 -0.007,0.009 -0.009,0.0101 -0.0164,0.0211 -0.0236,0.0328 -0.004,0.006 -0.007,0.0117 -0.0104,0.018 -0.002,0.003 -0.004,0.006 -0.006,0.01 -0.004,0.01 -0.007,0.0196 -0.01,0.0295 -0.002,0.005 -0.004,0.0103 -0.005,0.0158 -0.005,0.0192 -0.007,0.0386 -0.008,0.0579 -6e-5,0.003 5.5e-4,0.005 6e-4,0.008 2.7e-4,0.0169 0.002,0.0336 0.006,0.05 5.5e-4,0.002 1.9e-4,0.005 9e-4,0.007 l 0.62338,2.58915 c -1.1e-4,1.2e-4 10e-6,2.2e-4 7e-5,3.9e-4 l 2.7e-4,0.001 c 1.3e-4,5.5e-4 4.9e-4,9.9e-4 6.2e-4,0.002 0.005,0.0222 0.0147,0.0434 0.0261,0.0638 0.003,0.005 0.005,0.009 0.008,0.0135 0.0117,0.0184 0.0251,0.036 0.0419,0.0516 7e-4,6.4e-4 0.001,9.5e-4 0.002,0.002 0.002,0.002 0.004,0.003 0.006,0.005 0.0164,0.014 0.0341,0.0253 0.0526,0.0345 0.005,0.002 0.009,0.005 0.0142,0.007 0.0217,0.009 0.0439,0.016 0.0668,0.0191 9e-4,1.9e-4 0.002,6.7e-4 0.003,7.4e-4 l 6.30281,0.79975 c 2.3e-4,10e-5 2.8e-4,4e-5 5.7e-4,2e-4 l 0.003,4.3e-4 c 0.0245,0.003 0.0487,0.002 0.0722,-0.002 0.007,-0.001 0.0131,-0.003 0.0199,-0.005 0.0183,-0.004 0.0358,-0.0103 0.0527,-0.0186 0.007,-0.003 0.013,-0.006 0.0196,-0.01 0.0216,-0.0129 0.0423,-0.0277 0.0599,-0.0468 0.0176,-0.019 0.0308,-0.0408 0.042,-0.0633 0.003,-0.007 0.006,-0.0135 0.008,-0.0203 0.007,-0.0174 0.0115,-0.0355 0.0143,-0.0539 0.001,-0.007 0.002,-0.0134 0.003,-0.0203 0.002,-0.0238 10e-4,-0.0479 -0.004,-0.072 l -5.8e-4,-0.003 c -2e-5,-4.5e-4 -2e-5,-4.5e-4 -1.9e-4,-6.1e-4 l -1.28708,-6.22161 c -2.6e-4,-8.8e-4 -7.4e-4,-0.002 -9.4e-4,-0.003 -0.005,-0.0204 -0.0118,-0.0403 -0.0211,-0.0595 -0.002,-0.005 -0.005,-0.009 -0.008,-0.0133 z m -5.48968,3.41996 1.31401,0.59435 -0.9292,1.00444 -0.38481,-1.59879 z m 1.89051,-0.0287 -0.41817,-1.73679 1.76397,0.28201 -1.3458,1.45478 z m 1.82476,-1.20462 2.14045,3.52287 -3.67849,-1.86029 1.53804,-1.66258 z m -2.0658,-1.0318 1.13933,-1.23158 0.56734,1.50423 -1.70667,-0.27265 z m -0.27662,2.31389 -1.31407,-0.59439 0.9291,-1.00433 0.38497,1.59872 z m 0.43614,0.77855 3.27843,1.65802 -4.30655,-0.54666 1.02812,-1.11136 z m 2.27453,-2.4587 1.02806,-1.11131 0.87975,4.25105 -1.90781,-3.13974 z m -0.22983,-0.51946 -0.54176,-1.43682 1.47451,0.42854 -0.93275,1.00828 z"
         inkscape:connector-curvature="0"
         style="fill:#0095da;fill-opacity:1" />
    </g>
  </g>
</svg>
